Normalized EMG Linear Envelopes
nRows=43
nColumns=17

endheader
time	        VM	        VL	        RF	       GRA	        TA	   ADDLONG	   SEMIMEM	      BFLH	        GM	        GL	       TFL	   GLUTMAX	   GLUTMED	      PIRI	    OBTINT	        QF	
2	  0.077745	  0.108490	  0.710200	  0.383819	  0.498688	  0.217829	  0.077095	  0.076467	  0.066761	  0.157176	  0.311082	  0.027602	  0.125168	  0.134745	  0.145387	  0.046561	
2.0005	  0.078120	  0.108285	  0.709144	  0.381010	  0.496085	  0.216804	  0.076561	  0.076398	  0.065975	  0.155937	  0.309586	  0.027953	  0.126780	  0.136095	  0.145625	  0.046531	
2.001	  0.078492	  0.108079	  0.708047	  0.378243	  0.493439	  0.215770	  0.076041	  0.076343	  0.065201	  0.154719	  0.308098	  0.028306	  0.128401	  0.137460	  0.145861	  0.046504	
2.0015	  0.078860	  0.107875	  0.706908	  0.375517	  0.490749	  0.214726	  0.075535	  0.076300	  0.064439	  0.153520	  0.306620	  0.028660	  0.130031	  0.138839	  0.146095	  0.046479	
2.002	  0.079224	  0.107671	  0.705728	  0.372831	  0.488018	  0.213674	  0.075041	  0.076270	  0.063688	  0.152341	  0.305151	  0.029016	  0.131669	  0.140232	  0.146324	  0.046457	
2.0025	  0.079584	  0.107468	  0.704507	  0.370186	  0.485247	  0.212614	  0.074559	  0.076253	  0.062949	  0.151180	  0.303692	  0.029373	  0.133314	  0.141638	  0.146550	  0.046437	
2.003	  0.079940	  0.107266	  0.703244	  0.367581	  0.482438	  0.211546	  0.074090	  0.076247	  0.062221	  0.150038	  0.302244	  0.029731	  0.134966	  0.143057	  0.146770	  0.046421	
2.0035	  0.080292	  0.107064	  0.701939	  0.365015	  0.479590	  0.210471	  0.073633	  0.076254	  0.061504	  0.148912	  0.300806	  0.030091	  0.136624	  0.144488	  0.146985	  0.046407	
2.004	  0.080640	  0.106864	  0.700592	  0.362488	  0.476707	  0.209390	  0.073187	  0.076272	  0.060797	  0.147802	  0.299379	  0.030452	  0.138288	  0.145930	  0.147193	  0.046397	
2.0045	  0.080984	  0.106664	  0.699202	  0.360001	  0.473790	  0.208303	  0.072751	  0.076301	  0.060102	  0.146708	  0.297964	  0.030813	  0.139956	  0.147383	  0.147395	  0.046390	
2.005	  0.081323	  0.106465	  0.697769	  0.357552	  0.470840	  0.207210	  0.072327	  0.076341	  0.059416	  0.145629	  0.296561	  0.031176	  0.141629	  0.148846	  0.147589	  0.046387	
2.0055	  0.081657	  0.106267	  0.696293	  0.355142	  0.467858	  0.206112	  0.071913	  0.076391	  0.058740	  0.144564	  0.295170	  0.031539	  0.143305	  0.150318	  0.147776	  0.046388	
2.006	  0.081987	  0.106069	  0.694774	  0.352770	  0.464847	  0.205010	  0.071509	  0.076451	  0.058074	  0.143511	  0.293791	  0.031903	  0.144984	  0.151799	  0.147955	  0.046393	
2.0065	  0.082311	  0.105872	  0.693212	  0.350437	  0.461807	  0.203903	  0.071116	  0.076521	  0.057417	  0.142472	  0.292425	  0.032268	  0.146665	  0.153287	  0.148126	  0.046402	
2.007	  0.082630	  0.105675	  0.691608	  0.348142	  0.458741	  0.202792	  0.070732	  0.076600	  0.056769	  0.141444	  0.291071	  0.032633	  0.148347	  0.154783	  0.148289	  0.046415	
2.0075	  0.082943	  0.105478	  0.689963	  0.345884	  0.455650	  0.201678	  0.070357	  0.076688	  0.056130	  0.140427	  0.289730	  0.032998	  0.150031	  0.156285	  0.148444	  0.046433	
2.008	  0.083251	  0.105282	  0.688278	  0.343663	  0.452536	  0.200561	  0.069992	  0.076784	  0.055499	  0.139420	  0.288402	  0.033364	  0.151715	  0.157793	  0.148590	  0.046455	
2.0085	  0.083552	  0.105086	  0.686554	  0.341478	  0.449399	  0.199441	  0.069636	  0.076888	  0.054877	  0.138422	  0.287087	  0.033729	  0.153398	  0.159306	  0.148729	  0.046482	
2.009	  0.083848	  0.104890	  0.684792	  0.339329	  0.446242	  0.198317	  0.069289	  0.077000	  0.054262	  0.137433	  0.285784	  0.034095	  0.155080	  0.160824	  0.148859	  0.046513	
2.0095	  0.084137	  0.104693	  0.682993	  0.337215	  0.443065	  0.197191	  0.068950	  0.077120	  0.053656	  0.136451	  0.284493	  0.034460	  0.156760	  0.162345	  0.148982	  0.046549	
2.01	  0.084419	  0.104497	  0.681157	  0.335136	  0.439871	  0.196063	  0.068620	  0.077246	  0.053056	  0.135475	  0.283215	  0.034825	  0.158438	  0.163870	  0.149096	  0.046590	
2.0105	  0.084695	  0.104300	  0.679285	  0.333091	  0.436659	  0.194932	  0.068298	  0.077379	  0.052464	  0.134506	  0.281948	  0.035189	  0.160111	  0.165397	  0.149201	  0.046636	
2.011	  0.084965	  0.104102	  0.677379	  0.331081	  0.433431	  0.193799	  0.067983	  0.077518	  0.051879	  0.133541	  0.280693	  0.035553	  0.161780	  0.166926	  0.149299	  0.046687	
2.0115	  0.085227	  0.103905	  0.675438	  0.329105	  0.430188	  0.192663	  0.067676	  0.077662	  0.051300	  0.132582	  0.279450	  0.035916	  0.163444	  0.168456	  0.149388	  0.046742	
2.012	  0.085483	  0.103706	  0.673463	  0.327161	  0.426931	  0.191526	  0.067377	  0.077812	  0.050727	  0.131626	  0.278218	  0.036278	  0.165102	  0.169988	  0.149469	  0.046803	
2.0125	  0.085731	  0.103507	  0.671457	  0.325252	  0.423661	  0.190387	  0.067084	  0.077967	  0.050161	  0.130673	  0.276998	  0.036639	  0.166752	  0.171521	  0.149542	  0.046869	
2.013	  0.085973	  0.103307	  0.669418	  0.323375	  0.420379	  0.189247	  0.066797	  0.078126	  0.049600	  0.129723	  0.275788	  0.036999	  0.168395	  0.173055	  0.149608	  0.046940	
2.0135	  0.086207	  0.103106	  0.667350	  0.321531	  0.417086	  0.188105	  0.066517	  0.078290	  0.049045	  0.128775	  0.274589	  0.037358	  0.170028	  0.174588	  0.149666	  0.047016	
2.014	  0.086434	  0.102905	  0.665254	  0.319719	  0.413784	  0.186962	  0.066242	  0.078457	  0.048495	  0.127829	  0.273401	  0.037715	  0.171653	  0.176122	  0.149718	  0.047098	
2.0145	  0.086653	  0.102702	  0.663130	  0.317939	  0.410473	  0.185818	  0.065972	  0.078627	  0.047950	  0.126883	  0.272222	  0.038071	  0.173267	  0.177655	  0.149763	  0.047185	
2.015	  0.086865	  0.102498	  0.660980	  0.316190	  0.407154	  0.184673	  0.065708	  0.078800	  0.047411	  0.125937	  0.271053	  0.038425	  0.174871	  0.179186	  0.149802	  0.047277	
2.0155	  0.087069	  0.102293	  0.658806	  0.314471	  0.403829	  0.183528	  0.065447	  0.078976	  0.046876	  0.124990	  0.269893	  0.038777	  0.176463	  0.180716	  0.149837	  0.047374	
2.016	  0.087265	  0.102087	  0.656609	  0.312783	  0.400499	  0.182383	  0.065191	  0.079153	  0.046346	  0.124041	  0.268742	  0.039128	  0.178044	  0.182243	  0.149866	  0.047477	
2.0165	  0.087454	  0.101879	  0.654390	  0.311124	  0.397165	  0.181237	  0.064939	  0.079332	  0.045820	  0.123090	  0.267600	  0.039478	  0.179611	  0.183768	  0.149890	  0.047585	
2.017	  0.087635	  0.101670	  0.652150	  0.309495	  0.393827	  0.180091	  0.064690	  0.079512	  0.045298	  0.122136	  0.266465	  0.039825	  0.181166	  0.185289	  0.149911	  0.047699	
2.0175	  0.087808	  0.101460	  0.649890	  0.307895	  0.390488	  0.178945	  0.064443	  0.079692	  0.044781	  0.121178	  0.265339	  0.040171	  0.182708	  0.186806	  0.149927	  0.047818	
2.018	  0.087974	  0.101248	  0.647610	  0.306323	  0.387148	  0.177800	  0.064199	  0.079872	  0.044268	  0.120215	  0.264221	  0.040514	  0.184236	  0.188318	  0.149941	  0.047942	
2.0185	  0.088132	  0.101035	  0.645312	  0.304780	  0.383807	  0.176654	  0.063957	  0.080051	  0.043758	  0.119247	  0.263109	  0.040856	  0.185750	  0.189825	  0.149951	  0.048072	
2.019	  0.088282	  0.100821	  0.642997	  0.303263	  0.380466	  0.175509	  0.063716	  0.080229	  0.043252	  0.118273	  0.262005	  0.041195	  0.187249	  0.191326	  0.149960	  0.048207	
2.0195	  0.088425	  0.100605	  0.640666	  0.301774	  0.377127	  0.174364	  0.063476	  0.080405	  0.042750	  0.117292	  0.260906	  0.041532	  0.188733	  0.192820	  0.149966	  0.048347	
2.02	  0.088560	  0.100388	  0.638320	  0.300312	  0.373789	  0.173219	  0.063236	  0.080578	  0.042251	  0.116305	  0.259813	  0.041867	  0.190201	  0.194306	  0.149971	  0.048492	
2.0205	  0.088687	  0.100169	  0.635961	  0.298875	  0.370453	  0.172075	  0.062996	  0.080748	  0.041755	  0.115310	  0.258724	  0.042200	  0.191652	  0.195784	  0.149974	  0.048642	
2.021	  0.088806	  0.099949	  0.633589	  0.297463	  0.367120	  0.170931	  0.062756	  0.080914	  0.041263	  0.114308	  0.257641	  0.042529	  0.193087	  0.197252	  0.149977	  0.048798	
